<?xml version="1.0" standalone="no"?><!DOCTYPE svg PUBLIC "-//W3C//DTD SVG 1.1//EN" "http://www.w3.org/Graphics/SVG/1.1/DTD/svg11.dtd"><svg t="1719844754972" class="icon" viewBox="0 0 1024 1024" version="1.1" xmlns="http://www.w3.org/2000/svg" p-id="1762" xmlns:xlink="http://www.w3.org/1999/xlink" width="200" height="200"><path d="M103.135086 87.771429c-145.334857 117.101714-129.426286 711.241143 0 825.124571 129.389714 113.883429 694.016 133.010286 823.405714-31.853714 129.389714-164.864 113.481143-676.169143 0-793.234286C813.059657-29.257143 248.433371-29.257143 103.135086 87.771429z m361.837714 503.917714v-54.308572q0-31.744 22.637714-56.173714 18.395429-19.858286 45.348572-27.721143 27.099429-7.899429 44.361143-30.537143 17.481143-22.966857 17.481142-52.004571 0-35.584-25.161142-60.745143-25.161143-25.197714-60.781715-25.197714-35.584 0-60.781714 25.197714-25.161143 25.161143-25.161143 60.745143a43.885714 43.885714 0 0 1-87.771428 0q0-71.936 50.870857-122.843429 50.907429-50.834286 122.88-50.834285 71.936 0 122.806857 50.834285 50.870857 50.907429 50.870857 122.88 0 58.587429-35.437714 105.142858-34.742857 45.641143-89.6 61.622857-2.962286 0.877714-4.754286 2.413714v51.529143a43.885714 43.885714 0 0 1-87.771429 0z m94.756571 113.883428a54.857143 54.857143 0 1 1-109.714285 0 54.857143 54.857143 0 0 1 109.714285 0z" fill="#FF579A" p-id="1763"></path></svg>